<svg width="166" height="144" xmlns="http://www.w3.org/2000/svg" xmlns:xlink="http://www.w3.org/1999/xlink" xmlns:svgjs="http://svgjs.com/svgjs" fill="#00b1ff" opacity=".176" style="--darkreader-inline-fill:#1abbff"><svg xmlns="http://www.w3.org/2000/svg" width="166" height="144"><path paint-order="stroke fill markers" fill-rule="evenodd" d="M164.879 61.084c-.332-9.765-10.144-14.516-18.774-16.535-6.064-1.418-13.19-1.887-19.307.056l5.892-20.424c.95-3.293-1.733-6.876-3.86-8.998-3.18-3.174-7.4-5.523-11.747-6.797-5.835-1.71-12.816-2.674-19.18-1.559-1.349-1.055-2.73-1.917-3.942-2.504-3.746-1.81-7.777-2.997-11.875-3.742-4.892-.888-13.021-.975-17.692 1.304l-55.7 27.17C5.014 30.848.816 33.004.09 37.513c-.66 4.101 2.428 8.336 5.524 10.66 4.706 3.532 10.56 5.854 16.417 6.616a86.52 86.52 0 0 0 3.15.356A318.538 318.538 0 0 0 9.103 90.54c-1.386 3.62 3.101 8.842 5.525 10.66 3.943 2.96 8.453 4.754 13.25 5.876 8.546 2 22.221 2.552 28.022-5.562a298.443 298.443 0 0 1 6.652-8.922l-9.427 32.684c-1.103 3.822 2.83 8.638 5.525 10.66 3.942 2.96 8.452 4.754 13.249 5.876 9.345 2.185 21.215 2.123 28.023-5.563l30.886-34.868c2.954 1.18 6.074 1.996 8.892 2.363 5.744.747 12.268 1.023 17.692-1.304 3.3-1.415 8.75-4.197 8.604-8.459l-1.118-32.898z" style="--darkreader-inline-fill:#1abbff;--darkreader-inline-stroke:none"/></svg></svg>